<svg width="199" height="28" viewBox="0 0 199 28" fill="none" xmlns="http://www.w3.org/2000/svg">
<path opacity="0.9" d="M51.0198 14.4436C51.0198 17.0307 50.3232 19.0207 48.8307 20.4138C47.4377 21.8068 45.3481 22.5033 42.6616 22.5033H38.2834V6.78192H43.1591C45.6466 6.78192 47.5372 7.47844 48.9302 8.77197C50.3232 10.0655 51.0198 12.0556 51.0198 14.4436ZM48.3332 14.5431C48.3332 10.762 46.5422 8.97097 43.0596 8.97097H40.8705V20.3143H42.6616C46.4427 20.2148 48.3332 18.3242 48.3332 14.5431ZM59.2785 22.6028C57.4874 22.6028 55.9949 22.1053 54.9999 21.0108C54.0048 19.9162 53.4078 18.4237 53.4078 16.5332C53.4078 14.6426 53.9053 13.0506 54.9004 11.956C55.8954 10.8615 57.1889 10.2645 58.8805 10.2645C60.4725 10.2645 61.6665 10.762 62.5621 11.6575C63.4576 12.6526 63.9551 13.9461 63.9551 15.5381V16.9312H56.0944C56.0944 18.1252 56.3929 18.9212 56.9899 19.6177C57.5869 20.2148 58.3829 20.5133 59.4775 20.5133C60.174 20.5133 60.8705 20.4138 61.4675 20.3143C62.0645 20.2148 62.7611 19.9162 63.4576 19.6177V21.7073C62.8606 22.0058 62.2635 22.2048 61.567 22.3043C60.8705 22.6028 60.174 22.6028 59.2785 22.6028ZM58.8805 12.2546C58.0844 12.2546 57.4874 12.5531 56.9899 13.0506C56.4924 13.5481 56.1939 14.2446 56.0944 15.2396H61.4675C61.4675 14.2446 61.169 13.5481 60.771 13.0506C60.2735 12.5531 59.6765 12.2546 58.8805 12.2546ZM69.3282 22.4038H66.8407V5.7869H69.3282V22.4038ZM75.3979 22.4038H72.9103V10.563H75.3979V22.4038ZM72.7113 7.47844C72.7113 6.98093 72.8108 6.68242 73.1093 6.48341C73.4078 6.28441 73.7063 6.0854 74.2038 6.0854C74.6019 6.0854 74.9999 6.18491 75.1989 6.48341C75.4974 6.68242 75.5969 7.08043 75.5969 7.47844C75.5969 7.87645 75.4974 8.27446 75.1989 8.47346C74.9999 8.67247 74.6019 8.87147 74.2038 8.87147C73.7063 8.87147 73.4078 8.77197 73.1093 8.47346C72.9103 8.17495 72.7113 7.87645 72.7113 7.47844ZM81.6665 22.4038L77.1889 10.563H79.8755L82.2635 17.4287C82.6616 18.6227 82.9601 19.5182 83.0596 20.2148C83.1591 19.7172 83.3581 18.7222 83.8556 17.4287L86.2436 10.563H88.9302L84.4526 22.4038H81.6665ZM95.8954 22.6028C94.1043 22.6028 92.6118 22.1053 91.6168 21.0108C90.6218 19.9162 90.0247 18.4237 90.0247 16.5332C90.0247 14.6426 90.5223 13.0506 91.5173 11.956C92.5123 10.8615 93.8058 10.2645 95.4974 10.2645C97.0894 10.2645 98.2834 10.762 99.179 11.6575C100.074 12.6526 100.572 13.9461 100.572 15.5381V16.9312H92.7113C92.7113 18.1252 93.0098 18.9212 93.6068 19.6177C94.2038 20.2148 94.9999 20.5133 96.0944 20.5133C96.7909 20.5133 97.4874 20.4138 98.0844 20.3143C98.6815 20.2148 99.378 19.9162 100.074 19.6177V21.7073C99.4775 22.0058 98.8805 22.2048 98.1839 22.3043C97.3879 22.6028 96.6914 22.6028 95.8954 22.6028ZM95.3979 12.2546C94.6019 12.2546 94.0048 12.5531 93.5073 13.0506C93.0098 13.5481 92.7113 14.2446 92.6118 15.2396H97.9849C97.9849 14.2446 97.6864 13.5481 97.2884 13.0506C96.8904 12.5531 96.1939 12.2546 95.3979 12.2546ZM109.328 10.364C109.826 10.364 110.224 10.364 110.622 10.4635L110.423 12.8516C110.025 12.7521 109.726 12.7521 109.328 12.7521C108.333 12.7521 107.537 13.0506 106.841 13.7471C106.244 14.4436 105.945 15.2396 105.945 16.3342V22.4038H103.458V10.563H105.448L105.746 12.6526H105.846C106.244 11.956 106.741 11.359 107.338 10.961C107.935 10.563 108.632 10.364 109.328 10.364ZM111.02 10.563H113.806L116.194 17.2297C116.592 18.2247 116.791 19.1202 116.89 19.9162H116.99C117.089 19.5182 117.189 19.0207 117.388 18.5232C117.587 17.9262 118.482 15.3391 120.074 10.563H122.761L117.686 23.9958C116.791 26.4834 115.199 27.6774 113.109 27.6774C112.512 27.6774 112.015 27.5779 111.517 27.4784V25.4884C111.915 25.5879 112.313 25.5879 112.811 25.5879C114.005 25.5879 114.9 24.8914 115.398 23.4983L115.796 22.4038L111.02 10.563ZM131.517 22.4038L126.94 9.36898H126.841C126.94 11.2595 127.04 13.1501 127.04 14.8416V22.4038H124.751V6.78192H128.333L132.711 19.2197H132.811L137.288 6.78192H140.871V22.4038H138.383V14.6426C138.383 13.8466 138.383 12.8516 138.482 11.558C138.482 10.2645 138.582 9.56799 138.582 9.26948H138.482L133.806 22.4038H131.517ZM152.114 22.4038L151.617 20.7123H151.517C150.92 21.4088 150.423 21.9063 149.826 22.2048C149.229 22.5033 148.532 22.6028 147.637 22.6028C146.443 22.6028 145.547 22.3043 144.95 21.7073C144.254 21.1103 143.955 20.2148 143.955 19.0207C143.955 17.8267 144.453 16.9312 145.348 16.2347C146.244 15.6376 147.637 15.2396 149.527 15.2396L151.617 15.1401V14.5431C151.617 13.7471 151.418 13.2496 151.119 12.8516C150.721 12.4536 150.224 12.2546 149.527 12.2546C148.93 12.2546 148.333 12.3541 147.736 12.5531C147.139 12.7521 146.642 12.9511 146.144 13.1501L145.348 11.359C145.945 11.0605 146.741 10.762 147.438 10.563C148.234 10.364 148.93 10.2645 149.627 10.2645C151.119 10.2645 152.313 10.563 153.01 11.2595C153.806 11.956 154.204 12.9511 154.204 14.3441V22.3043H152.114V22.4038ZM148.333 20.7123C149.229 20.7123 149.925 20.4138 150.522 19.9162C151.119 19.4187 151.318 18.7222 151.318 17.7272V16.7322L149.826 16.8317C148.632 16.8317 147.736 17.0307 147.239 17.4287C146.741 17.8267 146.443 18.3242 146.443 19.0207C146.443 19.5182 146.642 19.9162 146.94 20.2148C147.239 20.5133 147.736 20.7123 148.333 20.7123ZM163.458 10.364C163.955 10.364 164.353 10.364 164.751 10.4635L164.552 12.8516C164.154 12.7521 163.856 12.7521 163.458 12.7521C162.463 12.7521 161.667 13.0506 160.97 13.7471C160.373 14.4436 160.074 15.2396 160.074 16.3342V22.4038H157.587V10.563H159.577L159.875 12.6526H159.975C160.373 11.956 160.871 11.359 161.468 10.961C161.965 10.563 162.662 10.364 163.458 10.364ZM169.328 16.1352L170.721 14.3441L174.303 10.563H177.189L172.413 15.6376L177.487 22.4038H174.502L170.721 17.2297L169.328 18.3242V22.4038H166.841V5.7869H169.328V13.9461V16.1352ZM184.552 22.6028C182.761 22.6028 181.269 22.1053 180.273 21.0108C179.278 19.9162 178.681 18.4237 178.681 16.5332C178.681 14.6426 179.179 13.0506 180.174 11.956C181.169 10.8615 182.463 10.2645 184.154 10.2645C185.746 10.2645 186.94 10.762 187.836 11.6575C188.731 12.6526 189.229 13.9461 189.229 15.5381V16.9312H181.368C181.368 18.1252 181.667 18.9212 182.264 19.6177C182.861 20.2148 183.657 20.5133 184.751 20.5133C185.448 20.5133 186.144 20.4138 186.741 20.3143C187.338 20.2148 188.035 19.9162 188.731 19.6177V21.7073C188.134 22.0058 187.537 22.2048 186.841 22.3043C186.045 22.6028 185.348 22.6028 184.552 22.6028ZM184.055 12.2546C183.259 12.2546 182.662 12.5531 182.164 13.0506C181.667 13.5481 181.368 14.2446 181.269 15.2396H186.642C186.642 14.2446 186.343 13.5481 185.945 13.0506C185.547 12.5531 184.851 12.2546 184.055 12.2546ZM196.393 20.6128C196.99 20.6128 197.587 20.5133 198.184 20.3143V22.2048C197.885 22.3043 197.587 22.4038 197.089 22.5033C196.691 22.6028 196.194 22.6028 195.696 22.6028C193.308 22.6028 192.114 21.3093 192.114 18.8217V12.4536H190.522V11.359L192.214 10.4635L193.109 7.97595H194.701V10.563H198.084V12.4536H194.701V18.8217C194.701 19.4187 194.801 19.9162 195.199 20.2148C195.497 20.4138 195.895 20.6128 196.393 20.6128Z" fill="#333333"/>
<g opacity="0.9">
<path opacity="0.9" d="M25.9453 8.67248L25.7463 8.27447L25.6468 8.17496L25.2488 7.87646L25.0498 8.27447L25.1493 7.77695C25.1493 7.77695 25.0498 7.77695 24.9502 7.77695L6.54229 5.18989V3.00083V2.90133V2.80183L6.34328 2.30432L6.14428 2.10531L5.94527 1.90631L1.66667 0.115262C1.06965 -0.183245 0.273632 0.115262 0.0746269 0.811779C-0.0248756 1.11029 -0.0248756 1.40879 0.0746269 1.7073C0.174129 2.00581 0.472637 2.30432 0.771144 2.40382L4.05473 3.79685V19.8168C4.05473 21.3093 5.04975 22.7023 6.44279 23.1998C6.34328 23.5978 6.24378 23.9959 6.24378 24.3939C6.24378 26.2844 7.83582 27.8765 9.72637 27.8765C11.6169 27.8765 13.209 26.2844 13.209 24.3939C13.209 23.9959 13.209 23.6974 13.01 23.3988H18.1841C18.0846 23.6974 18.0846 24.0954 18.0846 24.3939C18.0846 26.2844 19.6766 27.8765 21.5672 27.8765C23.4577 27.8765 25.0498 26.2844 25.0498 24.3939C25.0498 22.5033 23.4577 20.9113 21.5672 20.9113H7.63682C7.0398 20.9113 6.54229 20.4138 6.54229 19.8168V18.5232C6.8408 18.6227 7.23881 18.7222 7.63682 18.7222H22.3632C24.3532 18.7222 25.9453 17.1302 25.9453 15.1401V8.87148C25.9453 8.87148 25.9453 8.77198 25.9453 8.67248ZM21.6667 23.2993C22.2637 23.2993 22.6617 23.7969 22.6617 24.2944C22.6617 24.8914 22.1642 25.2894 21.6667 25.2894C21.0697 25.2894 20.6716 24.7919 20.6716 24.2944C20.6716 23.7969 21.0697 23.2993 21.6667 23.2993ZM9.72637 23.2993C10.3234 23.2993 10.7214 23.7969 10.7214 24.2944C10.7214 24.8914 10.2239 25.2894 9.72637 25.2894C9.12935 25.2894 8.73134 24.7919 8.73134 24.2944C8.73134 23.7969 9.22886 23.2993 9.72637 23.2993ZM23.4577 15.1401C23.4577 15.7372 22.9602 16.2347 22.3632 16.2347H7.63682C7.0398 16.2347 6.54229 15.7372 6.54229 15.1401V7.67745L23.4577 9.96601V15.1401ZM25.1493 8.47347L25.2488 8.37397L25.1493 8.47347ZM25.4478 8.47347H25.3483L25.6468 8.27447L25.4478 8.47347Z" fill="#FFC737"/>
</g>
</svg>
