<svg width="136" height="136" viewBox="0 0 136 136" fill="none" xmlns="http://www.w3.org/2000/svg">
<g filter="url(#filter0_d)">
<circle cx="68" cy="56" r="36" fill="white"/>
</g>
<path d="M67.6211 39C60.1108 39 54 45.1108 54 52.6218C54 54.581 54.401 56.4515 55.1913 58.1821C58.5969 65.6344 65.1264 73.5025 67.047 75.7362C67.1909 75.9033 67.4007 75.9994 67.6215 75.9994C67.8422 75.9994 68.052 75.9033 68.1958 75.7362C70.1157 73.5029 76.6453 65.6351 80.052 58.1821C80.8427 56.4515 81.2433 54.581 81.2433 52.6218C81.2426 45.1108 75.1318 39 67.6211 39ZM67.6211 59.6971C63.7198 59.6971 60.5455 56.5228 60.5455 52.6215C60.5455 48.7198 63.7198 45.5455 67.6211 45.5455C71.5224 45.5455 74.6966 48.7198 74.6966 52.6215C74.6971 56.5228 71.5228 59.6971 67.6211 59.6971Z" fill="#FFC737"/>
<defs>
<filter id="filter0_d" x="0" y="0" width="136" height="136" filterUnits="userSpaceOnUse" color-interpolation-filters="sRGB">
<feFlood flood-opacity="0" result="BackgroundImageFix"/>
<feColorMatrix in="SourceAlpha" type="matrix" values="0 0 0 0 0 0 0 0 0 0 0 0 0 0 0 0 0 0 127 0"/>
<feOffset dy="12"/>
<feGaussianBlur stdDeviation="16"/>
<feColorMatrix type="matrix" values="0 0 0 0 0.0666667 0 0 0 0 0.176471 0 0 0 0 0.278431 0 0 0 0.15 0"/>
<feBlend mode="normal" in2="BackgroundImageFix" result="effect1_dropShadow"/>
<feBlend mode="normal" in="SourceGraphic" in2="effect1_dropShadow" result="shape"/>
</filter>
</defs>
</svg>
